<?xml version="1.0" encoding="UTF-8"?>
<svg xmlns="http://www.w3.org/2000/svg" xmlns:xlink="http://www.w3.org/1999/xlink" width="14pt" height="14pt" viewBox="0 0 14 14" version="1.1">
<g id="surface301750">
<path style=" stroke:none;fill-rule:nonzero;fill:rgb(0%,0%,0%);fill-opacity:1;" d="M 0 7 C 0 3.132812 3.132812 0 7 0 C 10.867188 0 14 3.132812 14 7 C 14 10.867188 10.867188 14 7 14 C 3.132812 14 0 10.867188 0 7 Z M 7 13.71875 C 10.710938 13.71875 13.71875 10.710938 13.71875 7 C 13.71875 3.289062 10.710938 0.28125 7 0.28125 C 3.289062 0.28125 0.28125 3.289062 0.28125 7 C 0.28125 10.710938 3.289062 13.71875 7 13.71875 Z M 7 13.71875 "/>
<path style=" stroke:none;fill-rule:nonzero;fill:rgb(0%,0%,0%);fill-opacity:1;" d="M 5.777344 1.398438 C 5.21875 1.398438 4.769531 1.851562 4.769531 2.40625 C 4.769531 2.964844 5.21875 3.414062 5.777344 3.414062 C 6.332031 3.414062 6.785156 2.964844 6.785156 2.40625 C 6.785156 1.851562 6.332031 1.398438 5.777344 1.398438 Z M 4.769531 3.394531 C 4.699219 3.394531 4.609375 3.414062 4.585938 3.414062 L 2.90625 3.792969 C 2.773438 3.816406 2.664062 3.910156 2.621094 4.046875 L 1.996094 5.480469 C 1.90625 5.683594 1.992188 5.917969 2.21875 6.019531 C 2.449219 6.121094 2.707031 5.953125 2.773438 5.796875 L 3.292969 4.578125 L 4.027344 4.402344 L 3.445312 6.707031 C 3.308594 7.289062 3.648438 7.605469 3.894531 7.628906 L 5.550781 7.917969 L 5.777344 9.644531 C 5.820312 9.914062 6.027344 10.09375 6.292969 10.09375 L 6.355469 10.09375 C 6.648438 10.050781 6.828125 9.796875 6.804688 9.507812 L 6.519531 7.449219 C 6.496094 7.222656 6.316406 7.042969 6.089844 7 L 5.175781 6.816406 L 5.550781 5.097656 L 6.113281 5.921875 C 6.179688 6.035156 6.3125 6.125 6.46875 6.125 C 6.515625 6.125 6.558594 6.125 6.601562 6.105469 L 8.058594 5.621094 C 8.28125 5.507812 8.398438 5.285156 8.332031 5.0625 C 8.265625 4.835938 8.015625 4.726562 7.8125 4.796875 L 6.652344 5.1875 C 6.652344 5.1875 5.847656 3.996094 5.734375 3.792969 C 5.621094 3.59375 5.464844 3.550781 5.285156 3.507812 C 5.285156 3.507812 4.878906 3.394531 4.769531 3.394531 Z M 10.367188 6.777344 L 10.367188 7.894531 L 8.800781 7.894531 L 8.800781 9.015625 L 7.230469 9.015625 L 7.230469 10.136719 L 5.664062 10.136719 L 5.664062 11.257812 L 4.097656 11.257812 L 4.097656 12.601562 L 4.542969 12.601562 L 4.542969 11.703125 L 6.113281 11.703125 L 6.113281 10.585938 L 7.679688 10.585938 L 7.679688 9.464844 L 9.25 9.464844 L 9.25 8.34375 L 10.816406 8.34375 L 10.816406 7.222656 L 12.382812 7.222656 L 12.382812 6.777344 Z M 3.402344 7.882812 L 3.199219 8.527344 L 1.847656 9.890625 C 1.648438 10.09375 1.648438 10.425781 1.847656 10.625 C 1.960938 10.714844 2.070312 10.785156 2.207031 10.785156 C 2.339844 10.785156 2.472656 10.738281 2.5625 10.625 L 4.003906 9.171875 C 4.074219 9.101562 4.117188 9.015625 4.136719 8.925781 L 4.335938 8.160156 L 3.832031 8.070312 C 3.679688 8.050781 3.535156 7.980469 3.402344 7.882812 Z M 3.402344 7.882812 "/>
</g>
</svg>
